<mxfile host="app.diagrams.net" modified="2022-05-08T14:44:21.580Z" agent="5.0 (Macintosh; Intel Mac OS X 10_15_7) AppleWebKit/537.36 (KHTML, like Gecko) Chrome/100.0.4896.127 Safari/537.36" etag="Tuvpg1and_6CR1VrF0nd" version="17.4.3" type="github">
  <diagram id="-Vc1SqAhIWkPA8O0TntI" name="Page-1">
    <mxGraphModel dx="1366" dy="762" grid="1" gridSize="10" guides="1" tooltips="1" connect="1" arrows="1" fold="1" page="1" pageScale="1" pageWidth="3300" pageHeight="4681" math="0" shadow="0">
      <root>
        <mxCell id="0" />
        <mxCell id="1" parent="0" />
        <mxCell id="4-JV3mOHDIH_--7JDjw1-2" value="" style="rounded=1;whiteSpace=wrap;html=1;dashed=1;" vertex="1" parent="1">
          <mxGeometry x="320" y="125" width="390" height="220" as="geometry" />
        </mxCell>
        <mxCell id="4-JV3mOHDIH_--7JDjw1-3" value="" style="shape=cylinder3;whiteSpace=wrap;html=1;boundedLbl=1;backgroundOutline=1;size=15;" vertex="1" parent="1">
          <mxGeometry x="580" y="146" width="40" height="50" as="geometry" />
        </mxCell>
        <mxCell id="4-JV3mOHDIH_--7JDjw1-6" value="UIDs" style="text;html=1;strokeColor=none;fillColor=none;align=center;verticalAlign=middle;whiteSpace=wrap;rounded=0;fontColor=#FF66B3;" vertex="1" parent="1">
          <mxGeometry x="570" y="146" width="60" height="30" as="geometry" />
        </mxCell>
        <mxCell id="4-JV3mOHDIH_--7JDjw1-10" style="edgeStyle=orthogonalEdgeStyle;rounded=0;orthogonalLoop=1;jettySize=auto;html=1;" edge="1" parent="1" source="4-JV3mOHDIH_--7JDjw1-7">
          <mxGeometry relative="1" as="geometry">
            <mxPoint x="570" y="171" as="targetPoint" />
          </mxGeometry>
        </mxCell>
        <mxCell id="4-JV3mOHDIH_--7JDjw1-7" value="CID1" style="text;html=1;strokeColor=none;fillColor=none;align=center;verticalAlign=middle;whiteSpace=wrap;rounded=0;fontColor=#3399FF;" vertex="1" parent="1">
          <mxGeometry x="370" y="156" width="60" height="30" as="geometry" />
        </mxCell>
        <mxCell id="4-JV3mOHDIH_--7JDjw1-11" value="RB" style="text;html=1;strokeColor=none;fillColor=none;align=center;verticalAlign=middle;whiteSpace=wrap;rounded=0;" vertex="1" parent="1">
          <mxGeometry x="610" y="156" width="60" height="30" as="geometry" />
        </mxCell>
        <mxCell id="4-JV3mOHDIH_--7JDjw1-12" value="" style="shape=cylinder3;whiteSpace=wrap;html=1;boundedLbl=1;backgroundOutline=1;size=15;" vertex="1" parent="1">
          <mxGeometry x="580" y="210" width="40" height="50" as="geometry" />
        </mxCell>
        <mxCell id="4-JV3mOHDIH_--7JDjw1-14" style="edgeStyle=orthogonalEdgeStyle;rounded=0;orthogonalLoop=1;jettySize=auto;html=1;" edge="1" parent="1">
          <mxGeometry relative="1" as="geometry">
            <mxPoint x="570" y="235" as="targetPoint" />
            <mxPoint x="430" y="235" as="sourcePoint" />
          </mxGeometry>
        </mxCell>
        <mxCell id="4-JV3mOHDIH_--7JDjw1-16" value="RB" style="text;html=1;strokeColor=none;fillColor=none;align=center;verticalAlign=middle;whiteSpace=wrap;rounded=0;" vertex="1" parent="1">
          <mxGeometry x="610" y="220" width="60" height="30" as="geometry" />
        </mxCell>
        <mxCell id="4-JV3mOHDIH_--7JDjw1-17" value="" style="shape=cylinder3;whiteSpace=wrap;html=1;boundedLbl=1;backgroundOutline=1;size=15;" vertex="1" parent="1">
          <mxGeometry x="580" y="278" width="40" height="50" as="geometry" />
        </mxCell>
        <mxCell id="4-JV3mOHDIH_--7JDjw1-19" style="edgeStyle=orthogonalEdgeStyle;rounded=0;orthogonalLoop=1;jettySize=auto;html=1;" edge="1" parent="1">
          <mxGeometry relative="1" as="geometry">
            <mxPoint x="570" y="303" as="targetPoint" />
            <mxPoint x="430" y="302.9999999999999" as="sourcePoint" />
          </mxGeometry>
        </mxCell>
        <mxCell id="4-JV3mOHDIH_--7JDjw1-21" value="RB" style="text;html=1;strokeColor=none;fillColor=none;align=center;verticalAlign=middle;whiteSpace=wrap;rounded=0;" vertex="1" parent="1">
          <mxGeometry x="610" y="288" width="60" height="30" as="geometry" />
        </mxCell>
        <mxCell id="4-JV3mOHDIH_--7JDjw1-22" value="" style="rounded=1;whiteSpace=wrap;html=1;dashed=1;" vertex="1" parent="1">
          <mxGeometry x="830" y="125" width="690" height="220" as="geometry" />
        </mxCell>
        <mxCell id="4-JV3mOHDIH_--7JDjw1-199" value="" style="shape=table;startSize=0;container=1;collapsible=0;childLayout=tableLayout;dashed=1;fontColor=#000000;strokeColor=default;gradientColor=none;gradientDirection=west;" vertex="1" parent="1">
          <mxGeometry x="1000" y="180" width="480" height="120" as="geometry" />
        </mxCell>
        <mxCell id="4-JV3mOHDIH_--7JDjw1-200" value="" style="shape=tableRow;horizontal=0;startSize=0;swimlaneHead=0;swimlaneBody=0;top=0;left=0;bottom=0;right=0;collapsible=0;dropTarget=0;fillColor=none;points=[[0,0.5],[1,0.5]];portConstraint=eastwest;dashed=1;fontColor=#FF66B3;strokeColor=default;" vertex="1" parent="4-JV3mOHDIH_--7JDjw1-199">
          <mxGeometry width="480" height="40" as="geometry" />
        </mxCell>
        <mxCell id="4-JV3mOHDIH_--7JDjw1-201" value="&lt;font&gt;0&lt;/font&gt;" style="shape=partialRectangle;html=1;whiteSpace=wrap;connectable=0;overflow=hidden;fillColor=none;top=0;left=0;bottom=0;right=0;pointerEvents=1;dashed=1;fontColor=#000000;strokeColor=default;" vertex="1" parent="4-JV3mOHDIH_--7JDjw1-200">
          <mxGeometry width="60" height="40" as="geometry">
            <mxRectangle width="60" height="40" as="alternateBounds" />
          </mxGeometry>
        </mxCell>
        <mxCell id="4-JV3mOHDIH_--7JDjw1-202" value="0" style="shape=partialRectangle;html=1;whiteSpace=wrap;connectable=0;overflow=hidden;fillColor=none;top=0;left=0;bottom=0;right=0;pointerEvents=1;dashed=1;fontColor=#000000;strokeColor=default;" vertex="1" parent="4-JV3mOHDIH_--7JDjw1-200">
          <mxGeometry x="60" width="60" height="40" as="geometry">
            <mxRectangle width="60" height="40" as="alternateBounds" />
          </mxGeometry>
        </mxCell>
        <mxCell id="4-JV3mOHDIH_--7JDjw1-203" value="1" style="shape=partialRectangle;html=1;whiteSpace=wrap;connectable=0;overflow=hidden;fillColor=none;top=0;left=0;bottom=0;right=0;pointerEvents=1;dashed=1;fontColor=#000000;strokeColor=default;" vertex="1" parent="4-JV3mOHDIH_--7JDjw1-200">
          <mxGeometry x="120" width="60" height="40" as="geometry">
            <mxRectangle width="60" height="40" as="alternateBounds" />
          </mxGeometry>
        </mxCell>
        <mxCell id="4-JV3mOHDIH_--7JDjw1-204" value="1" style="shape=partialRectangle;html=1;whiteSpace=wrap;connectable=0;overflow=hidden;fillColor=none;top=0;left=0;bottom=0;right=0;pointerEvents=1;dashed=1;fontColor=#000000;strokeColor=default;" vertex="1" parent="4-JV3mOHDIH_--7JDjw1-200">
          <mxGeometry x="180" width="60" height="40" as="geometry">
            <mxRectangle width="60" height="40" as="alternateBounds" />
          </mxGeometry>
        </mxCell>
        <mxCell id="4-JV3mOHDIH_--7JDjw1-205" value="0" style="shape=partialRectangle;html=1;whiteSpace=wrap;connectable=0;overflow=hidden;fillColor=none;top=0;left=0;bottom=0;right=0;pointerEvents=1;dashed=1;fontColor=#000000;strokeColor=default;" vertex="1" parent="4-JV3mOHDIH_--7JDjw1-200">
          <mxGeometry x="240" width="60" height="40" as="geometry">
            <mxRectangle width="60" height="40" as="alternateBounds" />
          </mxGeometry>
        </mxCell>
        <mxCell id="4-JV3mOHDIH_--7JDjw1-206" value="0" style="shape=partialRectangle;html=1;whiteSpace=wrap;connectable=0;overflow=hidden;fillColor=none;top=0;left=0;bottom=0;right=0;pointerEvents=1;dashed=1;fontColor=#000000;strokeColor=default;" vertex="1" parent="4-JV3mOHDIH_--7JDjw1-200">
          <mxGeometry x="300" width="60" height="40" as="geometry">
            <mxRectangle width="60" height="40" as="alternateBounds" />
          </mxGeometry>
        </mxCell>
        <mxCell id="4-JV3mOHDIH_--7JDjw1-207" value="0" style="shape=partialRectangle;html=1;whiteSpace=wrap;connectable=0;overflow=hidden;fillColor=none;top=0;left=0;bottom=0;right=0;pointerEvents=1;dashed=1;fontColor=#000000;strokeColor=default;" vertex="1" parent="4-JV3mOHDIH_--7JDjw1-200">
          <mxGeometry x="360" width="60" height="40" as="geometry">
            <mxRectangle width="60" height="40" as="alternateBounds" />
          </mxGeometry>
        </mxCell>
        <mxCell id="4-JV3mOHDIH_--7JDjw1-208" value="1" style="shape=partialRectangle;html=1;whiteSpace=wrap;connectable=0;overflow=hidden;fillColor=none;top=0;left=0;bottom=0;right=0;pointerEvents=1;dashed=1;fontColor=#000000;strokeColor=default;" vertex="1" parent="4-JV3mOHDIH_--7JDjw1-200">
          <mxGeometry x="420" width="60" height="40" as="geometry">
            <mxRectangle width="60" height="40" as="alternateBounds" />
          </mxGeometry>
        </mxCell>
        <mxCell id="4-JV3mOHDIH_--7JDjw1-209" value="" style="shape=tableRow;horizontal=0;startSize=0;swimlaneHead=0;swimlaneBody=0;top=0;left=0;bottom=0;right=0;collapsible=0;dropTarget=0;fillColor=none;points=[[0,0.5],[1,0.5]];portConstraint=eastwest;dashed=1;fontColor=#FF66B3;strokeColor=default;" vertex="1" parent="4-JV3mOHDIH_--7JDjw1-199">
          <mxGeometry y="40" width="480" height="40" as="geometry" />
        </mxCell>
        <mxCell id="4-JV3mOHDIH_--7JDjw1-210" value="0" style="shape=partialRectangle;html=1;whiteSpace=wrap;connectable=0;overflow=hidden;fillColor=none;top=0;left=0;bottom=0;right=0;pointerEvents=1;dashed=1;fontColor=#000000;strokeColor=default;" vertex="1" parent="4-JV3mOHDIH_--7JDjw1-209">
          <mxGeometry width="60" height="40" as="geometry">
            <mxRectangle width="60" height="40" as="alternateBounds" />
          </mxGeometry>
        </mxCell>
        <mxCell id="4-JV3mOHDIH_--7JDjw1-211" value="0" style="shape=partialRectangle;html=1;whiteSpace=wrap;connectable=0;overflow=hidden;fillColor=none;top=0;left=0;bottom=0;right=0;pointerEvents=1;dashed=1;fontColor=#000000;strokeColor=default;" vertex="1" parent="4-JV3mOHDIH_--7JDjw1-209">
          <mxGeometry x="60" width="60" height="40" as="geometry">
            <mxRectangle width="60" height="40" as="alternateBounds" />
          </mxGeometry>
        </mxCell>
        <mxCell id="4-JV3mOHDIH_--7JDjw1-212" value="1" style="shape=partialRectangle;html=1;whiteSpace=wrap;connectable=0;overflow=hidden;fillColor=none;top=0;left=0;bottom=0;right=0;pointerEvents=1;dashed=1;fontColor=#000000;strokeColor=default;" vertex="1" parent="4-JV3mOHDIH_--7JDjw1-209">
          <mxGeometry x="120" width="60" height="40" as="geometry">
            <mxRectangle width="60" height="40" as="alternateBounds" />
          </mxGeometry>
        </mxCell>
        <mxCell id="4-JV3mOHDIH_--7JDjw1-213" value="1" style="shape=partialRectangle;html=1;whiteSpace=wrap;connectable=0;overflow=hidden;fillColor=none;top=0;left=0;bottom=0;right=0;pointerEvents=1;dashed=1;fontColor=#000000;strokeColor=default;" vertex="1" parent="4-JV3mOHDIH_--7JDjw1-209">
          <mxGeometry x="180" width="60" height="40" as="geometry">
            <mxRectangle width="60" height="40" as="alternateBounds" />
          </mxGeometry>
        </mxCell>
        <mxCell id="4-JV3mOHDIH_--7JDjw1-214" value="1" style="shape=partialRectangle;html=1;whiteSpace=wrap;connectable=0;overflow=hidden;fillColor=none;top=0;left=0;bottom=0;right=0;pointerEvents=1;dashed=1;fontColor=#000000;strokeColor=default;" vertex="1" parent="4-JV3mOHDIH_--7JDjw1-209">
          <mxGeometry x="240" width="60" height="40" as="geometry">
            <mxRectangle width="60" height="40" as="alternateBounds" />
          </mxGeometry>
        </mxCell>
        <mxCell id="4-JV3mOHDIH_--7JDjw1-215" value="0" style="shape=partialRectangle;html=1;whiteSpace=wrap;connectable=0;overflow=hidden;fillColor=none;top=0;left=0;bottom=0;right=0;pointerEvents=1;dashed=1;fontColor=#000000;strokeColor=default;" vertex="1" parent="4-JV3mOHDIH_--7JDjw1-209">
          <mxGeometry x="300" width="60" height="40" as="geometry">
            <mxRectangle width="60" height="40" as="alternateBounds" />
          </mxGeometry>
        </mxCell>
        <mxCell id="4-JV3mOHDIH_--7JDjw1-216" value="1" style="shape=partialRectangle;html=1;whiteSpace=wrap;connectable=0;overflow=hidden;fillColor=none;top=0;left=0;bottom=0;right=0;pointerEvents=1;dashed=1;fontColor=#000000;strokeColor=default;" vertex="1" parent="4-JV3mOHDIH_--7JDjw1-209">
          <mxGeometry x="360" width="60" height="40" as="geometry">
            <mxRectangle width="60" height="40" as="alternateBounds" />
          </mxGeometry>
        </mxCell>
        <mxCell id="4-JV3mOHDIH_--7JDjw1-217" value="0" style="shape=partialRectangle;html=1;whiteSpace=wrap;connectable=0;overflow=hidden;fillColor=none;top=0;left=0;bottom=0;right=0;pointerEvents=1;dashed=1;fontColor=#000000;strokeColor=default;" vertex="1" parent="4-JV3mOHDIH_--7JDjw1-209">
          <mxGeometry x="420" width="60" height="40" as="geometry">
            <mxRectangle width="60" height="40" as="alternateBounds" />
          </mxGeometry>
        </mxCell>
        <mxCell id="4-JV3mOHDIH_--7JDjw1-218" value="" style="shape=tableRow;horizontal=0;startSize=0;swimlaneHead=0;swimlaneBody=0;top=0;left=0;bottom=0;right=0;collapsible=0;dropTarget=0;fillColor=none;points=[[0,0.5],[1,0.5]];portConstraint=eastwest;dashed=1;fontColor=#FF66B3;strokeColor=default;" vertex="1" parent="4-JV3mOHDIH_--7JDjw1-199">
          <mxGeometry y="80" width="480" height="40" as="geometry" />
        </mxCell>
        <mxCell id="4-JV3mOHDIH_--7JDjw1-219" value="1" style="shape=partialRectangle;html=1;whiteSpace=wrap;connectable=0;overflow=hidden;fillColor=none;top=0;left=0;bottom=0;right=0;pointerEvents=1;dashed=1;fontColor=#000000;strokeColor=default;" vertex="1" parent="4-JV3mOHDIH_--7JDjw1-218">
          <mxGeometry width="60" height="40" as="geometry">
            <mxRectangle width="60" height="40" as="alternateBounds" />
          </mxGeometry>
        </mxCell>
        <mxCell id="4-JV3mOHDIH_--7JDjw1-220" value="1" style="shape=partialRectangle;html=1;whiteSpace=wrap;connectable=0;overflow=hidden;fillColor=none;top=0;left=0;bottom=0;right=0;pointerEvents=1;dashed=1;fontColor=#000000;strokeColor=default;" vertex="1" parent="4-JV3mOHDIH_--7JDjw1-218">
          <mxGeometry x="60" width="60" height="40" as="geometry">
            <mxRectangle width="60" height="40" as="alternateBounds" />
          </mxGeometry>
        </mxCell>
        <mxCell id="4-JV3mOHDIH_--7JDjw1-221" value="1" style="shape=partialRectangle;html=1;whiteSpace=wrap;connectable=0;overflow=hidden;fillColor=none;top=0;left=0;bottom=0;right=0;pointerEvents=1;dashed=1;fontColor=#000000;strokeColor=default;" vertex="1" parent="4-JV3mOHDIH_--7JDjw1-218">
          <mxGeometry x="120" width="60" height="40" as="geometry">
            <mxRectangle width="60" height="40" as="alternateBounds" />
          </mxGeometry>
        </mxCell>
        <mxCell id="4-JV3mOHDIH_--7JDjw1-222" value="0" style="shape=partialRectangle;html=1;whiteSpace=wrap;connectable=0;overflow=hidden;fillColor=none;top=0;left=0;bottom=0;right=0;pointerEvents=1;dashed=1;fontColor=#000000;strokeColor=default;" vertex="1" parent="4-JV3mOHDIH_--7JDjw1-218">
          <mxGeometry x="180" width="60" height="40" as="geometry">
            <mxRectangle width="60" height="40" as="alternateBounds" />
          </mxGeometry>
        </mxCell>
        <mxCell id="4-JV3mOHDIH_--7JDjw1-223" value="0" style="shape=partialRectangle;html=1;whiteSpace=wrap;connectable=0;overflow=hidden;fillColor=none;top=0;left=0;bottom=0;right=0;pointerEvents=1;dashed=1;fontColor=#000000;strokeColor=default;" vertex="1" parent="4-JV3mOHDIH_--7JDjw1-218">
          <mxGeometry x="240" width="60" height="40" as="geometry">
            <mxRectangle width="60" height="40" as="alternateBounds" />
          </mxGeometry>
        </mxCell>
        <mxCell id="4-JV3mOHDIH_--7JDjw1-224" value="1" style="shape=partialRectangle;html=1;whiteSpace=wrap;connectable=0;overflow=hidden;fillColor=none;top=0;left=0;bottom=0;right=0;pointerEvents=1;dashed=1;fontColor=#000000;strokeColor=default;" vertex="1" parent="4-JV3mOHDIH_--7JDjw1-218">
          <mxGeometry x="300" width="60" height="40" as="geometry">
            <mxRectangle width="60" height="40" as="alternateBounds" />
          </mxGeometry>
        </mxCell>
        <mxCell id="4-JV3mOHDIH_--7JDjw1-225" value="0" style="shape=partialRectangle;html=1;whiteSpace=wrap;connectable=0;overflow=hidden;fillColor=none;top=0;left=0;bottom=0;right=0;pointerEvents=1;dashed=1;fontColor=#000000;strokeColor=default;" vertex="1" parent="4-JV3mOHDIH_--7JDjw1-218">
          <mxGeometry x="360" width="60" height="40" as="geometry">
            <mxRectangle width="60" height="40" as="alternateBounds" />
          </mxGeometry>
        </mxCell>
        <mxCell id="4-JV3mOHDIH_--7JDjw1-226" value="1" style="shape=partialRectangle;html=1;whiteSpace=wrap;connectable=0;overflow=hidden;fillColor=none;top=0;left=0;bottom=0;right=0;pointerEvents=1;dashed=1;fontColor=#000000;strokeColor=default;" vertex="1" parent="4-JV3mOHDIH_--7JDjw1-218">
          <mxGeometry x="420" width="60" height="40" as="geometry">
            <mxRectangle width="60" height="40" as="alternateBounds" />
          </mxGeometry>
        </mxCell>
        <mxCell id="4-JV3mOHDIH_--7JDjw1-227" value="CID&lt;span style=&quot;white-space: pre&quot;&gt;	&lt;/span&gt;" style="text;html=1;strokeColor=none;fillColor=none;align=center;verticalAlign=middle;whiteSpace=wrap;rounded=0;fontColor=#3399FF;" vertex="1" parent="1">
          <mxGeometry x="1000" y="140" width="60" height="30" as="geometry" />
        </mxCell>
        <mxCell id="4-JV3mOHDIH_--7JDjw1-228" value="CID2" style="text;html=1;strokeColor=none;fillColor=none;align=center;verticalAlign=middle;whiteSpace=wrap;rounded=0;fontColor=#3399FF;" vertex="1" parent="1">
          <mxGeometry x="1060" y="140" width="60" height="30" as="geometry" />
        </mxCell>
        <mxCell id="4-JV3mOHDIH_--7JDjw1-229" value="CID3" style="text;html=1;strokeColor=none;fillColor=none;align=center;verticalAlign=middle;whiteSpace=wrap;rounded=0;fontColor=#3399FF;" vertex="1" parent="1">
          <mxGeometry x="1120" y="140" width="60" height="30" as="geometry" />
        </mxCell>
        <mxCell id="4-JV3mOHDIH_--7JDjw1-230" value="UID1" style="text;html=1;strokeColor=none;fillColor=none;align=center;verticalAlign=middle;whiteSpace=wrap;rounded=0;fontColor=#FF66B3;" vertex="1" parent="1">
          <mxGeometry x="860" y="185.5" width="60" height="30" as="geometry" />
        </mxCell>
        <mxCell id="4-JV3mOHDIH_--7JDjw1-231" value="UID3" style="text;html=1;strokeColor=none;fillColor=none;align=center;verticalAlign=middle;whiteSpace=wrap;rounded=0;fontColor=#FF66B3;" vertex="1" parent="1">
          <mxGeometry x="860" y="264.5" width="60" height="30" as="geometry" />
        </mxCell>
        <mxCell id="4-JV3mOHDIH_--7JDjw1-232" value="UID2" style="text;html=1;strokeColor=none;fillColor=none;align=center;verticalAlign=middle;whiteSpace=wrap;rounded=0;fontColor=#FF66B3;" vertex="1" parent="1">
          <mxGeometry x="860" y="224.5" width="60" height="30" as="geometry" />
        </mxCell>
        <mxCell id="4-JV3mOHDIH_--7JDjw1-233" value="CID3" style="text;html=1;strokeColor=none;fillColor=none;align=center;verticalAlign=middle;whiteSpace=wrap;rounded=0;fontColor=#3399FF;" vertex="1" parent="1">
          <mxGeometry x="370" y="288" width="60" height="30" as="geometry" />
        </mxCell>
        <mxCell id="4-JV3mOHDIH_--7JDjw1-234" value="CID2" style="text;html=1;strokeColor=none;fillColor=none;align=center;verticalAlign=middle;whiteSpace=wrap;rounded=0;fontColor=#3399FF;" vertex="1" parent="1">
          <mxGeometry x="370" y="220" width="60" height="30" as="geometry" />
        </mxCell>
        <mxCell id="4-JV3mOHDIH_--7JDjw1-235" value="UIDs" style="text;html=1;strokeColor=none;fillColor=none;align=center;verticalAlign=middle;whiteSpace=wrap;rounded=0;fontColor=#FF66B3;" vertex="1" parent="1">
          <mxGeometry x="570" y="210" width="60" height="30" as="geometry" />
        </mxCell>
        <mxCell id="4-JV3mOHDIH_--7JDjw1-236" value="UIDs" style="text;html=1;strokeColor=none;fillColor=none;align=center;verticalAlign=middle;whiteSpace=wrap;rounded=0;fontColor=#FF66B3;" vertex="1" parent="1">
          <mxGeometry x="570" y="278" width="60" height="30" as="geometry" />
        </mxCell>
        <mxCell id="4-JV3mOHDIH_--7JDjw1-237" value="CID4" style="text;html=1;strokeColor=none;fillColor=none;align=center;verticalAlign=middle;whiteSpace=wrap;rounded=0;fontColor=#3399FF;" vertex="1" parent="1">
          <mxGeometry x="1180" y="140" width="60" height="30" as="geometry" />
        </mxCell>
        <mxCell id="4-JV3mOHDIH_--7JDjw1-238" value="CID5" style="text;html=1;strokeColor=none;fillColor=none;align=center;verticalAlign=middle;whiteSpace=wrap;rounded=0;fontColor=#3399FF;" vertex="1" parent="1">
          <mxGeometry x="1240" y="140" width="60" height="30" as="geometry" />
        </mxCell>
        <mxCell id="4-JV3mOHDIH_--7JDjw1-239" value="CID6" style="text;html=1;strokeColor=none;fillColor=none;align=center;verticalAlign=middle;whiteSpace=wrap;rounded=0;fontColor=#3399FF;" vertex="1" parent="1">
          <mxGeometry x="1300" y="140" width="60" height="30" as="geometry" />
        </mxCell>
        <mxCell id="4-JV3mOHDIH_--7JDjw1-240" value="CID7" style="text;html=1;strokeColor=none;fillColor=none;align=center;verticalAlign=middle;whiteSpace=wrap;rounded=0;fontColor=#3399FF;" vertex="1" parent="1">
          <mxGeometry x="1360" y="140" width="60" height="30" as="geometry" />
        </mxCell>
        <mxCell id="4-JV3mOHDIH_--7JDjw1-241" value="CID8" style="text;html=1;strokeColor=none;fillColor=none;align=center;verticalAlign=middle;whiteSpace=wrap;rounded=0;fontColor=#3399FF;" vertex="1" parent="1">
          <mxGeometry x="1420" y="140" width="60" height="30" as="geometry" />
        </mxCell>
        <mxCell id="4-JV3mOHDIH_--7JDjw1-243" style="edgeStyle=orthogonalEdgeStyle;rounded=0;orthogonalLoop=1;jettySize=auto;html=1;" edge="1" parent="1">
          <mxGeometry relative="1" as="geometry">
            <mxPoint x="920" y="199.97" as="sourcePoint" />
            <mxPoint x="990" y="200" as="targetPoint" />
          </mxGeometry>
        </mxCell>
        <mxCell id="4-JV3mOHDIH_--7JDjw1-246" style="edgeStyle=orthogonalEdgeStyle;rounded=0;orthogonalLoop=1;jettySize=auto;html=1;" edge="1" parent="1">
          <mxGeometry relative="1" as="geometry">
            <mxPoint x="930" y="209.97000000000003" as="sourcePoint" />
            <mxPoint x="1000" y="210" as="targetPoint" />
          </mxGeometry>
        </mxCell>
      </root>
    </mxGraphModel>
  </diagram>
</mxfile>
